# xmcd
#
# Track frame offsets:
#	150
#	12841
#	27155
#	37918
#	49016
#	57114
#	75726
#	87552
#	97194
#	111670
#	129154
#	142779
#	153821
#	168241
#	183084
#	196615
#	210597
#	222285
#	238314
#	251601
#
# Disc length: 3546 seconds
#
# Revision: 1
# Processed by: cddbd v1.5.2PL0 Copyright (c) Steve Scherf et al.
# Submitted via: audiograbber 1.83.01
#
DISCID=030dd814
DTITLE=Philomena Begley - Village In County Tyrone [CD1)
DYEAR=1900
DGENRE=
TTITLE0=To Hear The Family Sing
TTITLE1=Grandma Whistled
TTITLE2=Medals For Mothers
TTITLE3=I Don't Believe I'll Fall In Love Today
TTITLE4=Lucky Old Me
TTITLE5=Grandpa Tell Us About The Good Old Days
TTITLE6=Yes, Mam, He Found Me In A Honky Tonk
TTITLE7=I Love You Honey
TTITLE8=Big Four Poster Bed
TTITLE9=Our Wedding Day
TTITLE10=No Man Is A Mountain
TTITLE11=Mama's And Daddy's Little Girl
TTITLE12=Come, Me Little Son
TTITLE13=Daddy's Side Of The Bed
TTITLE14=Jealous Heart
TTITLE15=A Picture Of Me
TTITLE16=Where Do Babies Go
TTITLE17=Come By The Hills
TTITLE18=Old Ardboe
TTITLE19=Mama He's Crazy
EXTD=
EXTT0=
EXTT1=
EXTT2=
EXTT3=
EXTT4=
EXTT5=
EXTT6=
EXTT7=
EXTT8=
EXTT9=
EXTT10=
EXTT11=
EXTT12=
EXTT13=
EXTT14=
EXTT15=
EXTT16=
EXTT17=
EXTT18=
EXTT19=
PLAYORDER=
